HIERARCHY
ROOT Hips
{
	OFFSET -0.001795 -0.223333 0.028219
	CHANNELS 6 Xposition Yposition Zposition Zrotation Yrotation Xrotation 
	JOINT LeftUpLeg
	{
		OFFSET 0.069520 -0.091406 -0.006815
		CHANNELS 3 Zrotation Yrotation Xrotation
		JOINT LeftLeg
		{
			OFFSET 0.034277 -0.375199 -0.004496
			CHANNELS 3 Zrotation Yrotation Xrotation
			JOINT LeftFoot
			{
				OFFSET -0.013596 -0.397961 -0.043693
				CHANNELS 3 Zrotation Yrotation Xrotation
				JOINT LeftToe
				{
					OFFSET 0.026358 -0.055791 0.119288
					CHANNELS 3 Zrotation Yrotation Xrotation
					End Site
					{
						OFFSET 0.000000 0.000000 0.000000
					}
				}
			}
		}
	}
	JOINT RightUpLeg
	{
		OFFSET -0.067670 -0.090522 -0.004320
		CHANNELS 3 Zrotation Yrotation Xrotation
		JOINT RightLeg
		{
			OFFSET -0.038290 -0.382569 -0.008850
			CHANNELS 3 Zrotation Yrotation Xrotation
			JOINT RightFoot
			{
				OFFSET 0.015774 -0.398415 -0.042312
				CHANNELS 3 Zrotation Yrotation Xrotation
				JOINT RightToe
				{
					OFFSET -0.025372 -0.048144 0.123348
					CHANNELS 3 Zrotation Yrotation Xrotation
					End Site
					{
						OFFSET 0.000000 0.000000 0.000000
					}
				}
			}
		}
	}
	JOINT Spine
	{
		OFFSET -0.002533 0.108963 -0.026696
		CHANNELS 3 Zrotation Yrotation Xrotation
		JOINT Spine1
		{
			OFFSET 0.005487 0.135180 0.001092
			CHANNELS 3 Zrotation Yrotation Xrotation
			JOINT Spine2
			{
				OFFSET 0.001457 0.052922 0.025425
				CHANNELS 3 Zrotation Yrotation Xrotation
				JOINT Neck
				{
					OFFSET -0.002778 0.213870 -0.042857
					CHANNELS 3 Zrotation Yrotation Xrotation
					JOINT Head
					{
						OFFSET 0.005152 0.064970 0.051349
						CHANNELS 3 Zrotation Yrotation Xrotation
						End Site
						{
							OFFSET 0.000000 0.000000 0.000000
						}
					}
				}
				JOINT LeftShoulder
				{
					OFFSET 0.078845 0.121749 -0.034090
					CHANNELS 3 Zrotation Yrotation Xrotation
					JOINT LeftArm
					{
						OFFSET 0.090977 0.030469 -0.008868
						CHANNELS 3 Zrotation Yrotation Xrotation
						JOINT LeftForeArm
						{
							OFFSET 0.259612 -0.012772 -0.027456
							CHANNELS 3 Zrotation Yrotation Xrotation
							JOINT LeftHand
							{
								OFFSET 0.249234 0.008986 -0.001171
								CHANNELS 3 Zrotation Yrotation Xrotation
								End Site
								{
									OFFSET 0.000000 0.000000 0.000000
								}
							}
						}
					}
				}
				JOINT RightShoulder
				{
					OFFSET -0.081759 0.118833 -0.038615
					CHANNELS 3 Zrotation Yrotation Xrotation
					JOINT RightArm
					{
						OFFSET -0.096012 0.032551 -0.009143
						CHANNELS 3 Zrotation Yrotation Xrotation
						JOINT RightForeArm
						{
							OFFSET -0.253742 -0.013329 -0.021401
							CHANNELS 3 Zrotation Yrotation Xrotation
							JOINT RightHand
							{
								OFFSET -0.255298 0.007772 -0.005559
								CHANNELS 3 Zrotation Yrotation Xrotation
								End Site
								{
									OFFSET 0.000000 0.000000 0.000000
								}
							}
						}
					}
				}
			}
		}
	}
}
MOTION
Frames: 7
Frame Time: 0.050000
0.041320 0.948092 -0.051377 0.085180 -2.413000 10.854470 2.830949 -0.708214 -9.352844 3.077230 -0.008737 -5.298446 -1.782206 0.701763 10.360297 0.000000 0.000000 0.000000 -1.895355 0.622368 -6.211289 -9.726557 -0.471283 -11.643817 3.392705 -0.365786 15.509757 0.000000 0.000000 0.000000 4.404107 0.432593 -7.666283 -0.839531 0.440193 -4.017062 -9.768443 5.396419 -2.347844 10.469287 -8.091054 -0.657179 0.000000 0.000000 0.000000 10.742993 -3.019932 2.484030 3.487980 -65.266578 -7.717133 120.103188 -14.449882 -24.638374 0.000000 0.000000 0.000000 -3.864884 -4.659117 -1.369188 66.980144 42.652880 23.158041 -140.322397 51.890640 -95.590058 0.000000 0.000000 0.000000 
0.040599 0.948176 -0.052410 0.130034 -2.818386 10.656207 2.952852 -0.670254 -8.898142 3.205731 -0.005312 -5.504133 -1.586583 0.864249 10.008393 0.000000 0.000000 0.000000 -2.139045 0.625562 -6.247348 -9.433111 -0.458185 -11.554025 3.671526 0.199507 15.227336 0.000000 0.000000 0.000000 4.326061 0.412488 -7.367201 -0.909733 0.468643 -4.210642 -9.885725 5.167548 -2.172144 10.335662 -8.085713 -0.297916 0.000000 0.000000 0.000000 9.940844 -3.570920 2.455533 3.966411 -66.101022 -7.990702 122.170789 -13.512159 -23.754546 0.000000 0.000000 0.000000 -2.851038 -3.769399 -1.133970 67.860603 43.884271 24.247424 -140.071433 51.599062 -95.146475 0.000000 0.000000 0.000000 
0.040027 0.948068 -0.053359 0.274605 -3.178331 10.510845 2.923422 -0.654871 -8.671958 3.098376 0.008110 -5.634943 -1.322470 1.346960 10.184302 0.000000 0.000000 0.000000 -2.271728 0.636853 -6.382728 -9.383195 -0.429067 -11.320823 3.829427 0.513188 15.040210 0.000000 0.000000 0.000000 4.161182 0.400252 -7.205005 -1.099162 0.543077 -3.863435 -9.954794 5.055246 -2.322980 10.247851 -7.852503 -0.853852 0.000000 0.000000 0.000000 9.279558 -4.288821 2.519745 3.253630 -67.186935 -7.636713 124.544495 -13.390196 -24.438335 0.000000 0.000000 0.000000 -2.279822 -3.128972 -0.949385 69.763755 44.925471 25.860298 -140.288946 50.904344 -94.808183 0.000000 0.000000 0.000000 
0.039687 0.947794 -0.054115 0.366535 -3.561138 10.232479 3.018653 -0.628460 -8.383655 3.109532 0.007568 -5.666199 -1.182410 1.527108 10.127820 0.000000 0.000000 0.000000 -2.307458 0.630349 -6.312270 -9.255948 -0.401807 -11.096333 3.677370 0.327578 14.685377 0.000000 0.000000 0.000000 4.207902 0.388643 -6.964086 -1.327614 0.637308 -3.855978 -10.105687 4.920629 -2.120997 10.546985 -7.959115 -1.353745 0.000000 0.000000 0.000000 7.802969 -5.097116 2.516411 1.129630 -68.062856 -6.316607 125.855369 -14.094555 -26.095137 0.000000 0.000000 0.000000 -1.520736 -2.297045 -0.708246 70.802882 45.729763 26.829701 -140.292865 50.003033 -93.803965 0.000000 0.000000 0.000000 
0.039461 0.947125 -0.054882 0.527575 -3.650202 9.965873 3.152226 -0.603134 -8.086852 2.866655 0.031538 -5.827383 -1.271021 1.419056 10.285745 0.000000 0.000000 0.000000 -2.569821 0.628088 -6.292423 -9.115516 -0.367843 -10.799613 3.632513 0.397907 14.333915 0.000000 0.000000 0.000000 4.062694 0.370801 -6.739376 -1.316926 0.630658 -3.330134 -10.427903 4.477358 -2.216191 10.292190 -7.819312 -1.092769 0.000000 0.000000 0.000000 6.521042 -5.592800 2.485991 -3.734121 -69.161724 -3.214421 127.208176 -16.166604 -30.337287 0.000000 0.000000 0.000000 -0.896937 -1.261749 -0.381301 71.874384 46.901811 28.155927 -140.036144 49.429561 -92.931863 0.000000 0.000000 0.000000 
0.039202 0.946770 -0.055902 0.463195 -3.820517 9.731308 3.516245 -0.581024 -8.020840 2.863070 0.009329 -5.481873 -1.315242 1.360832 10.398832 0.000000 0.000000 0.000000 -2.583810 0.620253 -6.204036 -8.743650 -0.347358 -10.600051 3.211447 -0.412670 14.321163 0.000000 0.000000 0.000000 4.103513 0.343132 -6.348961 -1.299484 0.622643 -3.555979 -10.584532 4.555623 -2.110825 10.788608 -8.162012 -1.288388 0.000000 0.000000 0.000000 5.082106 -6.933285 2.705969 -9.123630 -69.288391 0.248120 126.857387 -19.630120 -36.235973 0.000000 0.000000 0.000000 -0.369672 -0.547181 -0.157422 72.319316 47.530058 28.856228 -140.344837 48.572576 -92.171771 0.000000 0.000000 0.000000 
0.038917 0.946425 -0.057279 0.456330 -3.683274 9.633622 3.830998 -0.575551 -8.167266 2.607655 0.018586 -5.366087 -1.405999 1.423322 10.985431 0.000000 0.000000 0.000000 -2.687467 0.612206 -6.110595 -8.532698 -0.340466 -10.523517 2.816346 -1.162993 14.413410 0.000000 0.000000 0.000000 4.079558 0.329930 -6.191218 -0.905386 0.453297 -3.423571 -11.114530 4.389339 -2.287853 11.188572 -8.557249 -0.968030 0.000000 0.000000 0.000000 4.115642 -7.744572 2.852207 -16.446735 -69.374556 4.926503 125.621411 -23.242505 -41.609361 0.000000 0.000000 0.000000 0.210691 0.104419 0.050558 72.735608 48.133586 29.576751 -139.753123 48.129580 -90.686750 0.000000 0.000000 0.000000 
